<svg width="75" height="75" viewBox="0 0 75 75" fill="none" xmlns="http://www.w3.org/2000/svg">
<path d="M37.5 0C16.7893 0 0 16.7893 0 37.5C0 58.2107 16.7893 75 37.5 75C58.2107 75 75 58.2107 75 37.5C75 16.7893 58.2107 0 37.5 0ZM23.4491 62.8895H12.9069V28.9703H23.4491V62.8895V62.8895ZM18.1803 24.3338C14.8013 24.3338 12.066 21.5946 12.066 18.2202C12.0668 14.8488 14.8013 12.1097 18.1803 12.1097C21.5501 12.1097 24.2893 14.8488 24.2893 18.2202C24.2893 21.5954 21.5494 24.3338 18.1803 24.3338ZM62.9332 62.8895H52.3995V46.3941C52.3995 42.4604 52.3266 37.401 46.9197 37.401C41.4368 37.401 40.5936 41.6854 40.5936 46.1095V62.8887H30.0606V28.9703H40.1716V33.6054H40.3136C41.7215 30.9384 45.1588 28.1271 50.288 28.1271C60.9629 28.1271 62.9332 35.1522 62.9332 44.2849V62.8895Z" fill="#1D1D1D"/>
</svg>
