<svg width="75" height="75" viewBox="0 0 75 75" fill="none" xmlns="http://www.w3.org/2000/svg">
<path d="M37.5 75C58.2156 75 75 58.2156 75 37.5C75 16.7844 58.2156 0 37.5 0C16.7844 0 0 16.7844 0 37.5C0 58.2156 16.7844 75 37.5 75ZM17.1594 36.6875L53.3156 22.7469C54.9938 22.1406 56.4594 23.1563 55.9156 25.6938L55.9187 25.6906L49.7625 54.6938C49.3062 56.75 48.0844 57.25 46.375 56.2813L37 49.3719L32.4781 53.7281C31.9781 54.2281 31.5563 54.65 30.5875 54.65L31.2531 45.1094L48.6281 29.4125C49.3844 28.7469 48.4594 28.3719 47.4625 29.0344L25.9906 42.5531L16.7344 39.6656C14.725 39.0281 14.6813 37.6562 17.1594 36.6875V36.6875Z" fill="#1D1D1D"/>
</svg>
