<svg width="75" height="72" viewBox="0 0 75 72" fill="none" xmlns="http://www.w3.org/2000/svg">
<path d="M37.5 0C16.7812 0 0 16.5 0 36.85C0 53.1344 10.7437 66.9438 25.6406 71.8125C27.5156 72.1594 28.2031 71.0188 28.2031 70.0406C28.2031 69.1656 28.1719 66.8469 28.1563 63.775C17.725 65.9969 15.525 58.8313 15.525 58.8313C13.8187 54.5781 11.3531 53.4406 11.3531 53.4406C7.95625 51.1563 11.6156 51.2031 11.6156 51.2031C15.3813 51.4594 17.3594 55 17.3594 55C20.7031 60.6344 26.1375 59.0063 28.2813 58.0656C28.6188 55.6813 29.5844 54.0594 30.6563 53.1375C22.3281 52.2156 13.575 49.0469 13.575 34.9281C13.575 30.9063 15.0281 27.6188 17.4344 25.0406C17.0125 24.1094 15.7469 20.3625 17.7625 15.2875C17.7625 15.2875 20.9031 14.3 28.075 19.0656C31.075 18.2469 34.2625 17.8406 37.45 17.8219C40.6375 17.8406 43.825 18.2469 46.825 19.0656C53.95 14.3 57.0906 15.2875 57.0906 15.2875C59.1062 20.3625 57.8406 24.1094 57.4656 25.0406C59.8562 27.6188 61.3094 30.9063 61.3094 34.9281C61.3094 49.0844 52.5438 52.2 44.2 53.1063C45.5125 54.2125 46.7313 56.4719 46.7313 59.925C46.7313 64.8563 46.6844 68.8188 46.6844 70.0156C46.6844 70.9813 47.3406 72.1344 49.2625 71.7656C64.2656 66.9281 75 53.1094 75 36.85C75 16.5 58.2094 0 37.5 0V0Z" fill="#1D1D1D"/>
</svg>
